{
  "accessors": [
    {
      "bufferView": 2,
      "componentType": 5126,
      "count": 65532,
      "max": [
        58.85767364501953,
        86.62355041503906,
        21.84033203125
      ],
      "min": [
        -42.432464599609375,
        -72.79896545410156,
        -76.50242614746094
      ],
      "type": "VEC3"
    },
    {
      "bufferView": 2,
      "byteOffset": 786384,
      "componentType": 5126,
      "count": 65532,
      "max": [
        0.9999113082885742,
        0.9999983310699463,
        0.9999628663063049
      ],
      "min": [
        -0.9999664425849915,
        -0.999998927116394,
        -0.9999785423278809
      ],
      "type": "VEC3"
    },
    {
      "bufferView": 1,
      "componentType": 5126,
      "count": 65532,
      "max": [
        0.9946793913841248,
        0.9982411861419678
      ],
      "min": [
        0.001277608098462224,
        0.0027619600296020508
      ],
      "type": "VEC2"
    },
    {
      "bufferView": 0,
      "componentType": 5125,
      "count": 347697,
      "type": "SCALAR"
    },
    {
      "bufferView": 2,
      "byteOffset": 1572768,
      "componentType": 5126,
      "count": 65532,
      "max": [
        58.982322692871094,
        86.60861206054688,
        64.64928436279297
      ],
      "min": [
        -61.080711364746094,
        -23.281389236450195,
        -63.95248794555664
      ],
      "type": "VEC3"
    },
    {
      "bufferView": 2,
      "byteOffset": 2359152,
      "componentType": 5126,
      "count": 65532,
      "max": [
        0.9999953508377075,
        0.9999983906745911,
        0.9999905228614807
      ],
      "min": [
        -0.9999931454658508,
        -0.9999497532844543,
        -0.9999369978904724
      ],
      "type": "VEC3"
    },
    {
      "bufferView": 1,
      "byteOffset": 524256,
      "componentType": 5126,
      "count": 65532,
      "max": [
        0.974645733833313,
        0.9989380836486816
      ],
      "min": [
        0.013218957930803299,
        0.016566872596740723
      ],
      "type": "VEC2"
    },
    {
      "bufferView": 0,
      "byteOffset": 1390788,
      "componentType": 5125,
      "count": 337362,
      "type": "SCALAR"
    },
    {
      "bufferView": 2,
      "byteOffset": 3145536,
      "componentType": 5126,
      "count": 65532,
      "max": [
        32.204017639160156,
        65.48138427734375,
        64.28926086425781
      ],
      "min": [
        -62.85822296142578,
        -155.16026306152344,
        -30.11711311340332
      ],
      "type": "VEC3"
    },
    {
      "bufferView": 2,
      "byteOffset": 3931920,
      "componentType": 5126,
      "count": 65532,
      "max": [
        0.9999792575836182,
        0.9997709393501282,
        0.9999904036521912
      ],
      "min": [
        -0.9999915957450867,
        -0.9999883770942688,
        -0.999864935874939
      ],
      "type": "VEC3"
    },
    {
      "bufferView": 1,
      "byteOffset": 1048512,
      "componentType": 5126,
      "count": 65532,
      "max": [
        0.9898108243942261,
        0.9578635096549988
      ],
      "min": [
        0.013622472062706947,
        0.047457754611968994
      ],
      "type": "VEC2"
    },
    {
      "bufferView": 0,
      "byteOffset": 2740236,
      "componentType": 5125,
      "count": 340245,
      "type": "SCALAR"
    },
    {
      "bufferView": 2,
      "byteOffset": 4718304,
      "componentType": 5126,
      "count": 65532,
      "max": [
        50.33842849731445,
        69.48322296142578,
        64.64928436279297
      ],
      "min": [
        -52.67802429199219,
        -153.4296417236328,
        -30.486968994140625
      ],
      "type": "VEC3"
    },
    {
      "bufferView": 2,
      "byteOffset": 5504688,
      "componentType": 5126,
      "count": 65532,
      "max": [
        0.9999313950538635,
        0.9999620914459229,
        0.9999889135360718
      ],
      "min": [
        -0.9999502301216125,
        -0.9946120977401733,
        -1.0
      ],
      "type": "VEC3"
    },
    {
      "bufferView": 1,
      "byteOffset": 1572768,
      "componentType": 5126,
      "count": 65532,
      "max": [
        0.9969730377197266,
        0.9992086887359619
      ],
      "min": [
        0.0010292503284290433,
        0.005976259708404541
      ],
      "type": "VEC2"
    },
    {
      "bufferView": 0,
      "byteOffset": 4101216,
      "componentType": 5125,
      "count": 344016,
      "type": "SCALAR"
    },
    {
      "bufferView": 2,
      "byteOffset": 6291072,
      "componentType": 5126,
      "count": 65532,
      "max": [
        58.76483154296875,
        86.65544891357422,
        64.64928436279297
      ],
      "min": [
        -60.440120697021484,
        6.449333190917969,
        -61.70081329345703
      ],
      "type": "VEC3"
    },
    {
      "bufferView": 2,
      "byteOffset": 7077456,
      "componentType": 5126,
      "count": 65532,
      "max": [
        0.999999463558197,
        0.9999994039535522,
        0.999934732913971
      ],
      "min": [
        -0.999968409538269,
        -0.9975189566612244,
        -0.9999884963035583
      ],
      "type": "VEC3"
    },
    {
      "bufferView": 1,
      "byteOffset": 2097024,
      "componentType": 5126,
      "count": 65532,
      "max": [
        0.9880788326263428,
        0.8948842883110046
      ],
      "min": [
        0.0044944570399820805,
        0.03661203384399414
      ],
      "type": "VEC2"
    },
    {
      "bufferView": 0,
      "byteOffset": 5477280,
      "componentType": 5125,
      "count": 336531,
      "type": "SCALAR"
    },
    {
      "bufferView": 2,
      "byteOffset": 7863840,
      "componentType": 5126,
      "count": 65532,
      "max": [
        1.291760802268982,
        86.64118194580078,
        62.45225524902344
      ],
      "min": [
        -62.961883544921875,
        -154.3731231689453,
        -59.52094650268555
      ],
      "type": "VEC3"
    },
    {
      "bufferView": 2,
      "byteOffset": 8650224,
      "componentType": 5126,
      "count": 65532,
      "max": [
        0.9999869465827942,
        0.9999979734420776,
        0.9999805092811584
      ],
      "min": [
        -0.9999943971633911,
        -0.9999786019325256,
        -0.9999827146530151
      ],
      "type": "VEC3"
    },
    {
      "bufferView": 1,
      "byteOffset": 2621280,
      "componentType": 5126,
      "count": 65532,
      "max": [
        0.9888591766357422,
        0.9902960062026978
      ],
      "min": [
        0.0008402646635659039,
        0.005720019340515137
      ],
      "type": "VEC2"
    },
    {
      "bufferView": 0,
      "byteOffset": 6823404,
      "componentType": 5125,
      "count": 335553,
      "type": "SCALAR"
    },
    {
      "bufferView": 2,
      "byteOffset": 9436608,
      "componentType": 5126,
      "count": 65532,
      "max": [
        46.04242706298828,
        86.30923461914063,
        62.36166000366211
      ],
      "min": [
        -58.8963737487793,
        -155.0854949951172,
        -31.02155303955078
      ],
      "type": "VEC3"
    },
    {
      "bufferView": 2,
      "byteOffset": 10222992,
      "componentType": 5126,
      "count": 65532,
      "max": [
        0.9999979138374329,
        0.9999998211860657,
        0.9998615384101868
      ],
      "min": [
        -0.9999263286590576,
        -0.9999557137489319,
        -0.9999875426292419
      ],
      "type": "VEC3"
    },
    {
      "bufferView": 1,
      "byteOffset": 3145536,
      "componentType": 5126,
      "count": 65532,
      "max": [
        0.9970170855522156,
        0.9992219805717468
      ],
      "min": [
        0.0009388680336996913,
        0.006300687789916992
      ],
      "type": "VEC2"
    },
    {
      "bufferView": 0,
      "byteOffset": 8165616,
      "componentType": 5125,
      "count": 303042,
      "type": "SCALAR"
    },
    {
      "bufferView": 2,
      "byteOffset": 11009376,
      "componentType": 5126,
      "count": 65532,
      "max": [
        57.4313850402832,
        86.17560577392578,
        66.0741958618164
      ],
      "min": [
        -56.69007110595703,
        -145.6881103515625,
        -36.26899337768555
      ],
      "type": "VEC3"
    },
    {
      "bufferView": 2,
      "byteOffset": 11795760,
      "componentType": 5126,
      "count": 65532,
      "max": [
        0.9999962449073792,
        0.9999970197677612,
        0.9999776482582092
      ],
      "min": [
        -0.9999979734420776,
        -0.9999117851257324,
        -0.9999804496765137
      ],
      "type": "VEC3"
    },
    {
      "bufferView": 1,
      "byteOffset": 3669792,
      "componentType": 5126,
      "count": 65532,
      "max": [
        0.9961382150650024,
        0.999203085899353
      ],
      "min": [
        0.0008021165267564356,
        0.019565105438232422
      ],
      "type": "VEC2"
    },
    {
      "bufferView": 0,
      "byteOffset": 9377784,
      "componentType": 5125,
      "count": 330540,
      "type": "SCALAR"
    },
    {
      "bufferView": 2,
      "byteOffset": 12582144,
      "componentType": 5126,
      "count": 65532,
      "max": [
        58.96928024291992,
        86.02716064453125,
        65.63528442382813
      ],
      "min": [
        -54.16128158569336,
        -142.1653289794922,
        -54.133323669433594
      ],
      "type": "VEC3"
    },
    {
      "bufferView": 2,
      "byteOffset": 13368528,
      "componentType": 5126,
      "count": 65532,
      "max": [
        0.999999463558197,
        0.9999961256980896,
        0.9997252821922302
      ],
      "min": [
        -0.9999812841415405,
        -0.9999925494194031,
        -0.9999646544456482
      ],
      "type": "VEC3"
    },
    {
      "bufferView": 1,
      "byteOffset": 4194048,
      "componentType": 5126,
      "count": 65532,
      "max": [
        0.9799746870994568,
        0.9990367293357849
      ],
      "min": [
        0.0007623778656125069,
        0.0025805234909057617
      ],
      "type": "VEC2"
    },
    {
      "bufferView": 0,
      "byteOffset": 10699944,
      "componentType": 5125,
      "count": 293517,
      "type": "SCALAR"
    },
    {
      "bufferView": 2,
      "byteOffset": 14154912,
      "componentType": 5126,
      "count": 65532,
      "max": [
        58.80413055419922,
        85.64197540283203,
        54.54817581176758
      ],
      "min": [
        -48.402687072753906,
        -126.2689208984375,
        -76.50242614746094
      ],
      "type": "VEC3"
    },
    {
      "bufferView": 2,
      "byteOffset": 14941296,
      "componentType": 5126,
      "count": 65532,
      "max": [
        0.9999880790710449,
        0.9999619722366333,
        0.9999736547470093
      ],
      "min": [
        -0.9999271035194397,
        -0.9999986290931702,
        -0.999955952167511
      ],
      "type": "VEC3"
    },
    {
      "bufferView": 1,
      "byteOffset": 4718304,
      "componentType": 5126,
      "count": 65532,
      "max": [
        0.998474657535553,
        0.9990633726119995
      ],
      "min": [
        0.00108569604344666,
        0.0024806857109069824
      ],
      "type": "VEC2"
    },
    {
      "bufferView": 0,
      "byteOffset": 11874012,
      "componentType": 5125,
      "count": 314373,
      "type": "SCALAR"
    },
    {
      "bufferView": 2,
      "byteOffset": 15727680,
      "componentType": 5126,
      "count": 7733,
      "max": [
        54.565616607666016,
        86.59818267822266,
        20.671146392822266
      ],
      "min": [
        -44.60993194580078,
        -53.34175109863281,
        -62.038875579833984
      ],
      "type": "VEC3"
    },
    {
      "bufferView": 2,
      "byteOffset": 15820476,
      "componentType": 5126,
      "count": 7733,
      "max": [
        0.9984062910079956,
        0.9999987483024597,
        0.9993124008178711
      ],
      "min": [
        -0.9999810457229614,
        -0.9968492984771729,
        -0.9999505877494812
      ],
      "type": "VEC3"
    },
    {
      "bufferView": 1,
      "byteOffset": 5242560,
      "componentType": 5126,
      "count": 7733,
      "max": [
        0.9969986081123352,
        0.998819887638092
      ],
      "min": [
        0.005412673112004995,
        0.007285058498382568
      ],
      "type": "VEC2"
    },
    {
      "bufferView": 0,
      "byteOffset": 13131504,
      "componentType": 5125,
      "count": 23250,
      "type": "SCALAR"
    }
  ],
  "asset": {
    "extras": {
      "author": "Alienor.org, Conseil des musées (https://sketchfab.com/alienor.org)",
      "license": "CC-BY-NC-ND-4.0 (http://creativecommons.org/licenses/by-nc-nd/4.0/)",
      "source": "https://sketchfab.com/3d-models/nymphe-statuette-en-biscuit-24bd3631ed5f45769aca08c0a0fb6c51",
      "title": "Nymphe, statuette en biscuit"
    },
    "generator": "Sketchfab-16.72.0",
    "version": "2.0"
  },
  "bufferViews": [
    {
      "buffer": 0,
      "byteLength": 13224504,
      "name": "floatBufferViews",
      "target": 34963
    },
    {
      "buffer": 0,
      "byteLength": 5304424,
      "byteOffset": 13224504,
      "byteStride": 8,
      "name": "floatBufferViews",
      "target": 34962
    },
    {
      "buffer": 0,
      "byteLength": 15913272,
      "byteOffset": 18528928,
      "byteStride": 12,
      "name": "floatBufferViews",
      "target": 34962
    }
  ],
  "buffers": [
    {
      "byteLength": 34442200,
      "uri": "scene.bin"
    }
  ],
  "images": [
    {
      "uri": "textures/material_0_baseColor.jpeg"
    }
  ],
  "materials": [
    {
      "doubleSided": true,
      "name": "material_0",
      "pbrMetallicRoughness": {
        "baseColorTexture": {
          "index": 0
        },
        "metallicFactor": 0.0,
        "roughnessFactor": 0.8145505837369656
      }
    }
  ],
  "meshes": [
    {
      "name": "Object_0",
      "primitives": [
        {
          "attributes": {
            "NORMAL": 1,
            "POSITION": 0,
            "TEXCOORD_0": 2
          },
          "indices": 3,
          "material": 0,
          "mode": 4
        }
      ]
    },
    {
      "name": "Object_1",
      "primitives": [
        {
          "attributes": {
            "NORMAL": 5,
            "POSITION": 4,
            "TEXCOORD_0": 6
          },
          "indices": 7,
          "material": 0,
          "mode": 4
        }
      ]
    },
    {
      "name": "Object_2",
      "primitives": [
        {
          "attributes": {
            "NORMAL": 9,
            "POSITION": 8,
            "TEXCOORD_0": 10
          },
          "indices": 11,
          "material": 0,
          "mode": 4
        }
      ]
    },
    {
      "name": "Object_3",
      "primitives": [
        {
          "attributes": {
            "NORMAL": 13,
            "POSITION": 12,
            "TEXCOORD_0": 14
          },
          "indices": 15,
          "material": 0,
          "mode": 4
        }
      ]
    },
    {
      "name": "Object_4",
      "primitives": [
        {
          "attributes": {
            "NORMAL": 17,
            "POSITION": 16,
            "TEXCOORD_0": 18
          },
          "indices": 19,
          "material": 0,
          "mode": 4
        }
      ]
    },
    {
      "name": "Object_5",
      "primitives": [
        {
          "attributes": {
            "NORMAL": 21,
            "POSITION": 20,
            "TEXCOORD_0": 22
          },
          "indices": 23,
          "material": 0,
          "mode": 4
        }
      ]
    },
    {
      "name": "Object_6",
      "primitives": [
        {
          "attributes": {
            "NORMAL": 25,
            "POSITION": 24,
            "TEXCOORD_0": 26
          },
          "indices": 27,
          "material": 0,
          "mode": 4
        }
      ]
    },
    {
      "name": "Object_7",
      "primitives": [
        {
          "attributes": {
            "NORMAL": 29,
            "POSITION": 28,
            "TEXCOORD_0": 30
          },
          "indices": 31,
          "material": 0,
          "mode": 4
        }
      ]
    },
    {
      "name": "Object_8",
      "primitives": [
        {
          "attributes": {
            "NORMAL": 33,
            "POSITION": 32,
            "TEXCOORD_0": 34
          },
          "indices": 35,
          "material": 0,
          "mode": 4
        }
      ]
    },
    {
      "name": "Object_9",
      "primitives": [
        {
          "attributes": {
            "NORMAL": 37,
            "POSITION": 36,
            "TEXCOORD_0": 38
          },
          "indices": 39,
          "material": 0,
          "mode": 4
        }
      ]
    },
    {
      "name": "Object_10",
      "primitives": [
        {
          "attributes": {
            "NORMAL": 41,
            "POSITION": 40,
            "TEXCOORD_0": 42
          },
          "indices": 43,
          "material": 0,
          "mode": 4
        }
      ]
    }
  ],
  "nodes": [
    {
      "children": [
        1
      ],
      "matrix": [
        1.0,
        0.0,
        0.0,
        0.0,
        0.0,
        -1.0,
        -4.440892098500626e-16,
        0.0,
        0.0,
        4.440892098500626e-16,
        -1.0,
        0.0,
        0.0,
        0.0,
        0.0,
        1.0
      ],
      "name": "Sketchfab_model"
    },
    {
      "children": [
        2,
        3,
        4,
        5,
        6,
        7,
        8,
        9,
        10,
        11,
        12
      ],
      "name": "biscuit-nymphe_1908-1-71.obj.cleaner.materialmerger.gles"
    },
    {
      "mesh": 0,
      "name": "Object_2"
    },
    {
      "mesh": 1,
      "name": "Object_3"
    },
    {
      "mesh": 2,
      "name": "Object_4"
    },
    {
      "mesh": 3,
      "name": "Object_5"
    },
    {
      "mesh": 4,
      "name": "Object_6"
    },
    {
      "mesh": 5,
      "name": "Object_7"
    },
    {
      "mesh": 6,
      "name": "Object_8"
    },
    {
      "mesh": 7,
      "name": "Object_9"
    },
    {
      "mesh": 8,
      "name": "Object_10"
    },
    {
      "mesh": 9,
      "name": "Object_11"
    },
    {
      "mesh": 10,
      "name": "Object_12"
    }
  ],
  "samplers": [
    {
      "magFilter": 9729,
      "minFilter": 9987,
      "wrapS": 10497,
      "wrapT": 10497
    }
  ],
  "scene": 0,
  "scenes": [
    {
      "name": "Sketchfab_Scene",
      "nodes": [
        0
      ]
    }
  ],
  "textures": [
    {
      "sampler": 0,
      "source": 0
    }
  ]
}
